<?xml version="1.0" standalone="no"?><!DOCTYPE svg PUBLIC "-//W3C//DTD SVG 1.1//EN" "http://www.w3.org/Graphics/SVG/1.1/DTD/svg11.dtd"><svg t="1727335916596" class="icon" viewBox="0 0 1024 1024" version="1.1" xmlns="http://www.w3.org/2000/svg" p-id="13831" width="128" height="128" xmlns:xlink="http://www.w3.org/1999/xlink"><path d="M498.74720525 206.53394413C339.6412487 214.06558704 220.36609602 356.08050776 220.36609602 511.85516071c0 160.33709049 126.95163489 305.90057373 291.63390398 305.90057373 164.60984946 0 291.63390398-145.56348323 291.63390398-305.90057373 0-165.69614411-135.06263495-313.35979701-304.88669873-305.32121658zM512 747.21900178c-129.92084026 0-235.21900178-105.29816151-235.21900178-235.21900178S382.07915974 276.78099822 512 276.78099822 747.21900178 382.07915974 747.21900178 512 641.92084026 747.21900178 512 747.21900178z" fill="#ffffff" p-id="13832"></path><path d="M512 187.2c-179.4 0-324.8 145.4-324.8 324.8S332.6 836.8 512 836.8 836.8 691.4 836.8 512 691.4 187.2 512 187.2z m0 618.9c-162.4 0-294.1-131.7-294.1-294.1S349.6 217.9 512 217.9 806.1 349.6 806.1 512 674.4 806.1 512 806.1z" fill="#70c000" p-id="13833"></path><path d="M512 217.9c-162.4 0-294.1 131.7-294.1 294.1S349.6 806.1 512 806.1 806.1 674.4 806.1 512 674.4 217.9 512 217.9z m104.3 89.8c32.5-22 122.4 57.3 104.1 90.3-19.3 35-154.5 85.6-190.9 102.7 24.4-67.9 55.1-171.6 86.8-193z m-173.9-14.1c8.6-38.3 128.4-42.2 137.7-5.7 9.9 38.7-53.8 168.2-68.5 205.7-28.8-66.2-77.6-162.7-69.2-200z m-48.9 15.5c35 19.3 85.4 154.5 102.6 190.9-68-24.4-171.6-55.2-193-86.9-21.9-32.5 57.4-122.2 90.4-104z m-100.1 277c-38.4-8.1-43.9-127.8-7.5-137.7 38.6-10.5 168.9 51.5 206.6 65.7-65.9 29.8-161.7 79.9-199.1 72z m113.7 131.5c-33.3 20.8-120.3-61.5-101-93.8 20.5-34.3 157.3-80.3 194.2-96.2-26.6 67.2-60.8 169.7-93.2 190z m174.8 20.2c-8.7 38.3-128.5 41.9-137.8 5.4-9.8-38.7 54.1-168.1 68.9-205.5 28.8 66.2 77.4 162.8 68.9 200.1z m56.2-25.7c-36.2-17-95.4-148.6-114.9-183.8 69.4 19.9 174.9 43.8 198.3 74 24 31.1-49.3 125.8-83.4 109.8z m105.8-136.4c-38.4 11-169.6-49-207.5-62.7 65.4-30.7 160.5-82.2 198-74.9 38.5 7.6 45.7 127.2 9.5 137.6z" fill="#e6ffc3" p-id="13834"></path><path d="M580.2 288c-9.4-36.5-129.1-32.7-137.7 5.7-8.4 37.3 40.4 133.8 69.3 200 14.6-37.5 78.3-167 68.4-205.7zM734.3 438.2c-37.5-7.3-132.6 44.1-198 74.9 37.9 13.6 169.1 73.7 207.5 62.7 36.3-10.5 29.1-130.1-9.5-137.6zM720.4 398c18.2-33-71.6-112.3-104.1-90.3-31.7 21.4-62.3 125.1-86.7 193.1C566 483.6 701.1 433 720.4 398zM285.8 448.5c-36.4 9.9-30.9 129.5 7.5 137.7 37.4 7.9 133.2-42.2 199-72-37.6-14.3-167.9-76.2-206.5-65.7zM496.1 500c-17.2-36.4-67.6-171.6-102.6-190.9-33-18.2-112.4 71.5-90.4 104.1 21.4 31.7 125 62.4 193 86.8zM306.1 623.8c-19.3 32.3 67.7 114.7 101 93.8 32.4-20.3 66.6-122.9 93.2-190-36.9 16-173.7 61.9-194.2 96.2zM523.1 528.3c19.5 35.2 78.8 166.8 114.9 183.8 34.1 16 107.4-78.7 83.4-109.8-23.4-30.2-128.8-54.1-198.3-74zM444.1 743.1c9.3 36.5 129 32.9 137.8-5.4 8.5-37.3-40.1-133.9-68.8-200.1-14.8 37.5-78.8 166.8-69 205.5z" fill="#7cd301" p-id="13835"></path></svg>